<mxfile host="app.diagrams.net" agent="Mozilla/5.0 (Windows NT 10.0; Win64; x64) AppleWebKit/537.36 (KHTML, like Gecko) Chrome/141.0.0.0 Safari/537.36" version="28.2.7">
  <diagram name="Page-1" id="PizSOYr3Kr68xRPkFoEy">
    <mxGraphModel dx="2276" dy="743" grid="1" gridSize="10" guides="1" tooltips="1" connect="1" arrows="1" fold="1" page="1" pageScale="1" pageWidth="850" pageHeight="1100" math="0" shadow="0">
      <root>
        <mxCell id="0" />
        <mxCell id="1" parent="0" />
        <mxCell id="JyGssUp4hY9p978Yq240-28" style="edgeStyle=orthogonalEdgeStyle;rounded=0;orthogonalLoop=1;jettySize=auto;html=1;exitX=0.5;exitY=1;exitDx=0;exitDy=0;entryX=0.5;entryY=0;entryDx=0;entryDy=0;" edge="1" parent="1" source="JyGssUp4hY9p978Yq240-2" target="JyGssUp4hY9p978Yq240-4">
          <mxGeometry relative="1" as="geometry" />
        </mxCell>
        <mxCell id="JyGssUp4hY9p978Yq240-2" value="Start" style="ellipse;whiteSpace=wrap;html=1;fillColor=#d5e8d4;strokeColor=#82b366;" vertex="1" parent="1">
          <mxGeometry x="385" y="70" width="90" height="50" as="geometry" />
        </mxCell>
        <mxCell id="JyGssUp4hY9p978Yq240-3" value="End" style="ellipse;whiteSpace=wrap;html=1;fillColor=#f8cecc;strokeColor=#b85450;" vertex="1" parent="1">
          <mxGeometry x="385" y="560" width="90" height="50" as="geometry" />
        </mxCell>
        <mxCell id="JyGssUp4hY9p978Yq240-29" style="edgeStyle=orthogonalEdgeStyle;rounded=0;orthogonalLoop=1;jettySize=auto;html=1;exitX=0.5;exitY=1;exitDx=0;exitDy=0;entryX=0.5;entryY=0;entryDx=0;entryDy=0;" edge="1" parent="1" source="JyGssUp4hY9p978Yq240-4" target="JyGssUp4hY9p978Yq240-5">
          <mxGeometry relative="1" as="geometry" />
        </mxCell>
        <mxCell id="JyGssUp4hY9p978Yq240-4" value="Landing &amp;amp; Auth" style="rounded=0;whiteSpace=wrap;html=1;fillColor=#dae8fc;strokeColor=#6c8ebf;" vertex="1" parent="1">
          <mxGeometry x="330" y="140" width="200" height="30" as="geometry" />
        </mxCell>
        <mxCell id="JyGssUp4hY9p978Yq240-30" style="edgeStyle=orthogonalEdgeStyle;rounded=0;orthogonalLoop=1;jettySize=auto;html=1;exitX=0;exitY=0.5;exitDx=0;exitDy=0;entryX=0;entryY=0.5;entryDx=0;entryDy=0;" edge="1" parent="1" source="JyGssUp4hY9p978Yq240-5" target="JyGssUp4hY9p978Yq240-4">
          <mxGeometry relative="1" as="geometry">
            <Array as="points">
              <mxPoint x="280" y="250" />
              <mxPoint x="280" y="155" />
            </Array>
          </mxGeometry>
        </mxCell>
        <mxCell id="JyGssUp4hY9p978Yq240-31" style="edgeStyle=orthogonalEdgeStyle;rounded=0;orthogonalLoop=1;jettySize=auto;html=1;exitX=0.5;exitY=1;exitDx=0;exitDy=0;entryX=0.5;entryY=0;entryDx=0;entryDy=0;" edge="1" parent="1" source="JyGssUp4hY9p978Yq240-5" target="JyGssUp4hY9p978Yq240-7">
          <mxGeometry relative="1" as="geometry" />
        </mxCell>
        <mxCell id="JyGssUp4hY9p978Yq240-5" value="Is&lt;div&gt;user&lt;/div&gt;&lt;div&gt;authenticated?&lt;/div&gt;" style="rhombus;whiteSpace=wrap;html=1;fillColor=#e1d5e7;strokeColor=#9673a6;" vertex="1" parent="1">
          <mxGeometry x="365" y="190" width="130" height="120" as="geometry" />
        </mxCell>
        <mxCell id="JyGssUp4hY9p978Yq240-35" style="edgeStyle=orthogonalEdgeStyle;rounded=0;orthogonalLoop=1;jettySize=auto;html=1;exitX=0.5;exitY=1;exitDx=0;exitDy=0;" edge="1" parent="1" source="JyGssUp4hY9p978Yq240-7">
          <mxGeometry relative="1" as="geometry">
            <mxPoint x="430" y="390" as="targetPoint" />
          </mxGeometry>
        </mxCell>
        <mxCell id="JyGssUp4hY9p978Yq240-7" value="Aspirely Dashboard Access&lt;div&gt;[Overall Progress Tracker Integrated]&lt;/div&gt;" style="rounded=0;whiteSpace=wrap;html=1;fillColor=#dae8fc;strokeColor=#6c8ebf;" vertex="1" parent="1">
          <mxGeometry x="325" y="330" width="210" height="40" as="geometry" />
        </mxCell>
        <mxCell id="JyGssUp4hY9p978Yq240-44" style="edgeStyle=orthogonalEdgeStyle;rounded=0;orthogonalLoop=1;jettySize=auto;html=1;exitX=0.5;exitY=1;exitDx=0;exitDy=0;" edge="1" parent="1" source="JyGssUp4hY9p978Yq240-9">
          <mxGeometry relative="1" as="geometry">
            <mxPoint x="-9.952380952380963" y="440" as="targetPoint" />
          </mxGeometry>
        </mxCell>
        <mxCell id="JyGssUp4hY9p978Yq240-9" value="Social Media Interface" style="rounded=0;whiteSpace=wrap;html=1;fillColor=#dae8fc;strokeColor=#6c8ebf;" vertex="1" parent="1">
          <mxGeometry x="-110" y="400" width="200" height="30" as="geometry" />
        </mxCell>
        <mxCell id="JyGssUp4hY9p978Yq240-51" style="edgeStyle=orthogonalEdgeStyle;rounded=0;orthogonalLoop=1;jettySize=auto;html=1;exitX=0.5;exitY=1;exitDx=0;exitDy=0;entryX=0.5;entryY=0;entryDx=0;entryDy=0;" edge="1" parent="1" source="JyGssUp4hY9p978Yq240-10" target="JyGssUp4hY9p978Yq240-26">
          <mxGeometry relative="1" as="geometry" />
        </mxCell>
        <mxCell id="JyGssUp4hY9p978Yq240-10" value="Meditation Logs" style="rounded=0;whiteSpace=wrap;html=1;fillColor=#dae8fc;strokeColor=#6c8ebf;" vertex="1" parent="1">
          <mxGeometry x="770" y="400" width="200" height="30" as="geometry" />
        </mxCell>
        <mxCell id="JyGssUp4hY9p978Yq240-50" style="edgeStyle=orthogonalEdgeStyle;rounded=0;orthogonalLoop=1;jettySize=auto;html=1;exitX=0.5;exitY=1;exitDx=0;exitDy=0;entryX=0.5;entryY=0;entryDx=0;entryDy=0;" edge="1" parent="1" source="JyGssUp4hY9p978Yq240-12" target="JyGssUp4hY9p978Yq240-25">
          <mxGeometry relative="1" as="geometry" />
        </mxCell>
        <mxCell id="JyGssUp4hY9p978Yq240-12" value="Fitness Tracker" style="rounded=0;whiteSpace=wrap;html=1;fillColor=#dae8fc;strokeColor=#6c8ebf;" vertex="1" parent="1">
          <mxGeometry x="550" y="400" width="200" height="30" as="geometry" />
        </mxCell>
        <mxCell id="JyGssUp4hY9p978Yq240-13" value="Notes Application" style="rounded=0;whiteSpace=wrap;html=1;fillColor=#dae8fc;strokeColor=#6c8ebf;" vertex="1" parent="1">
          <mxGeometry x="330" y="400" width="200" height="30" as="geometry" />
        </mxCell>
        <mxCell id="JyGssUp4hY9p978Yq240-48" style="edgeStyle=orthogonalEdgeStyle;rounded=0;orthogonalLoop=1;jettySize=auto;html=1;exitX=0.5;exitY=1;exitDx=0;exitDy=0;entryX=0.5;entryY=0;entryDx=0;entryDy=0;" edge="1" parent="1" source="JyGssUp4hY9p978Yq240-14" target="JyGssUp4hY9p978Yq240-27">
          <mxGeometry relative="1" as="geometry" />
        </mxCell>
        <mxCell id="JyGssUp4hY9p978Yq240-14" value="Task Manager" style="rounded=0;whiteSpace=wrap;html=1;fillColor=#dae8fc;strokeColor=#6c8ebf;" vertex="1" parent="1">
          <mxGeometry x="110" y="400" width="200" height="30" as="geometry" />
        </mxCell>
        <mxCell id="JyGssUp4hY9p978Yq240-54" style="edgeStyle=orthogonalEdgeStyle;rounded=0;orthogonalLoop=1;jettySize=auto;html=1;exitX=0.5;exitY=1;exitDx=0;exitDy=0;" edge="1" parent="1" source="JyGssUp4hY9p978Yq240-22">
          <mxGeometry relative="1" as="geometry">
            <mxPoint x="47.53488372093034" y="540" as="targetPoint" />
          </mxGeometry>
        </mxCell>
        <mxCell id="JyGssUp4hY9p978Yq240-22" value="&lt;div&gt;Engage&lt;/div&gt;&lt;div&gt;in&lt;/div&gt;Social&lt;div&gt;Chatrooms&lt;/div&gt;" style="shape=parallelogram;perimeter=parallelogramPerimeter;whiteSpace=wrap;html=1;fixedSize=1;fillColor=#ffe6cc;strokeColor=#d79b00;" vertex="1" parent="1">
          <mxGeometry y="450" width="95" height="70" as="geometry" />
        </mxCell>
        <mxCell id="JyGssUp4hY9p978Yq240-53" style="edgeStyle=orthogonalEdgeStyle;rounded=0;orthogonalLoop=1;jettySize=auto;html=1;exitX=0.5;exitY=1;exitDx=0;exitDy=0;" edge="1" parent="1">
          <mxGeometry relative="1" as="geometry">
            <mxPoint x="-49.72413793103442" y="540" as="targetPoint" />
            <mxPoint x="-50" y="520" as="sourcePoint" />
          </mxGeometry>
        </mxCell>
        <mxCell id="JyGssUp4hY9p978Yq240-23" value="One to One&lt;div&gt;friend requests&amp;nbsp;&lt;/div&gt;&lt;div&gt;and&lt;/div&gt;&lt;div&gt;connections&lt;/div&gt;" style="shape=parallelogram;perimeter=parallelogramPerimeter;whiteSpace=wrap;html=1;fixedSize=1;fillColor=#ffe6cc;strokeColor=#d79b00;" vertex="1" parent="1">
          <mxGeometry x="-120" y="450" width="110" height="70" as="geometry" />
        </mxCell>
        <mxCell id="JyGssUp4hY9p978Yq240-58" style="edgeStyle=orthogonalEdgeStyle;rounded=0;orthogonalLoop=1;jettySize=auto;html=1;exitX=0.5;exitY=1;exitDx=0;exitDy=0;" edge="1" parent="1" source="JyGssUp4hY9p978Yq240-24">
          <mxGeometry relative="1" as="geometry">
            <mxPoint x="425" y="540" as="targetPoint" />
          </mxGeometry>
        </mxCell>
        <mxCell id="JyGssUp4hY9p978Yq240-24" value="CRUD Notes&lt;div&gt;Note categories&lt;/div&gt;&lt;div&gt;Rick Text / Markdown Support&lt;/div&gt;&lt;div&gt;Search &amp;amp; Pin Notes&lt;/div&gt;" style="shape=parallelogram;perimeter=parallelogramPerimeter;whiteSpace=wrap;html=1;fixedSize=1;fillColor=#ffe6cc;strokeColor=#d79b00;" vertex="1" parent="1">
          <mxGeometry x="320" y="450" width="210" height="70" as="geometry" />
        </mxCell>
        <mxCell id="JyGssUp4hY9p978Yq240-59" style="edgeStyle=orthogonalEdgeStyle;rounded=0;orthogonalLoop=1;jettySize=auto;html=1;exitX=0.5;exitY=1;exitDx=0;exitDy=0;" edge="1" parent="1" source="JyGssUp4hY9p978Yq240-25">
          <mxGeometry relative="1" as="geometry">
            <mxPoint x="650" y="540" as="targetPoint" />
          </mxGeometry>
        </mxCell>
        <mxCell id="JyGssUp4hY9p978Yq240-25" value="Progress Tracking [Loss/Gain]&lt;div&gt;Graphical display&lt;/div&gt;&lt;div&gt;Workout planner&lt;/div&gt;&lt;div&gt;Simulate Workout&lt;/div&gt;" style="shape=parallelogram;perimeter=parallelogramPerimeter;whiteSpace=wrap;html=1;fixedSize=1;fillColor=#ffe6cc;strokeColor=#d79b00;" vertex="1" parent="1">
          <mxGeometry x="545" y="450" width="210" height="70" as="geometry" />
        </mxCell>
        <mxCell id="JyGssUp4hY9p978Yq240-60" style="edgeStyle=orthogonalEdgeStyle;rounded=0;orthogonalLoop=1;jettySize=auto;html=1;exitX=0.5;exitY=1;exitDx=0;exitDy=0;" edge="1" parent="1" source="JyGssUp4hY9p978Yq240-26">
          <mxGeometry relative="1" as="geometry">
            <mxPoint x="870" y="540" as="targetPoint" />
          </mxGeometry>
        </mxCell>
        <mxCell id="JyGssUp4hY9p978Yq240-26" value="CRUD Logs&lt;div&gt;Highlight Meditation Notes&lt;/div&gt;&lt;div&gt;View Meditation and Yoga Data&lt;/div&gt;" style="shape=parallelogram;perimeter=parallelogramPerimeter;whiteSpace=wrap;html=1;fixedSize=1;fillColor=#ffe6cc;strokeColor=#d79b00;" vertex="1" parent="1">
          <mxGeometry x="770" y="450" width="200" height="70" as="geometry" />
        </mxCell>
        <mxCell id="JyGssUp4hY9p978Yq240-57" style="edgeStyle=orthogonalEdgeStyle;rounded=0;orthogonalLoop=1;jettySize=auto;html=1;exitX=0.5;exitY=1;exitDx=0;exitDy=0;" edge="1" parent="1" source="JyGssUp4hY9p978Yq240-27">
          <mxGeometry relative="1" as="geometry">
            <mxPoint x="210" y="540" as="targetPoint" />
          </mxGeometry>
        </mxCell>
        <mxCell id="JyGssUp4hY9p978Yq240-27" value="CRUD Tasks&lt;div&gt;Visit Task History&lt;/div&gt;&lt;div&gt;Schedule Tasks&lt;/div&gt;&lt;div&gt;Sort tasks by priority&lt;/div&gt;" style="shape=parallelogram;perimeter=parallelogramPerimeter;whiteSpace=wrap;html=1;fixedSize=1;fillColor=#ffe6cc;strokeColor=#d79b00;" vertex="1" parent="1">
          <mxGeometry x="110" y="450" width="200" height="70" as="geometry" />
        </mxCell>
        <mxCell id="JyGssUp4hY9p978Yq240-32" value="No" style="text;html=1;whiteSpace=wrap;strokeColor=none;fillColor=none;align=center;verticalAlign=middle;rounded=0;" vertex="1" parent="1">
          <mxGeometry x="270" y="190" width="60" height="30" as="geometry" />
        </mxCell>
        <mxCell id="JyGssUp4hY9p978Yq240-33" value="Yes" style="text;html=1;whiteSpace=wrap;strokeColor=none;fillColor=none;align=center;verticalAlign=middle;rounded=0;" vertex="1" parent="1">
          <mxGeometry x="425" y="300" width="60" height="30" as="geometry" />
        </mxCell>
        <mxCell id="JyGssUp4hY9p978Yq240-34" value="" style="endArrow=none;html=1;rounded=0;" edge="1" parent="1">
          <mxGeometry width="50" height="50" relative="1" as="geometry">
            <mxPoint x="-10" y="390" as="sourcePoint" />
            <mxPoint x="870" y="390" as="targetPoint" />
          </mxGeometry>
        </mxCell>
        <mxCell id="JyGssUp4hY9p978Yq240-36" value="" style="endArrow=classic;html=1;rounded=0;entryX=0.5;entryY=0;entryDx=0;entryDy=0;" edge="1" parent="1" target="JyGssUp4hY9p978Yq240-9">
          <mxGeometry width="50" height="50" relative="1" as="geometry">
            <mxPoint x="-10" y="390" as="sourcePoint" />
            <mxPoint x="420" y="390" as="targetPoint" />
          </mxGeometry>
        </mxCell>
        <mxCell id="JyGssUp4hY9p978Yq240-38" value="" style="endArrow=classic;html=1;rounded=0;entryX=0.5;entryY=0;entryDx=0;entryDy=0;" edge="1" parent="1">
          <mxGeometry width="50" height="50" relative="1" as="geometry">
            <mxPoint x="209.88" y="390" as="sourcePoint" />
            <mxPoint x="209.88" y="400" as="targetPoint" />
          </mxGeometry>
        </mxCell>
        <mxCell id="JyGssUp4hY9p978Yq240-39" value="" style="endArrow=classic;html=1;rounded=0;entryX=0.5;entryY=0;entryDx=0;entryDy=0;" edge="1" parent="1">
          <mxGeometry width="50" height="50" relative="1" as="geometry">
            <mxPoint x="649.88" y="390" as="sourcePoint" />
            <mxPoint x="649.88" y="400" as="targetPoint" />
          </mxGeometry>
        </mxCell>
        <mxCell id="JyGssUp4hY9p978Yq240-40" value="" style="endArrow=classic;html=1;rounded=0;entryX=0.5;entryY=0;entryDx=0;entryDy=0;" edge="1" parent="1">
          <mxGeometry width="50" height="50" relative="1" as="geometry">
            <mxPoint x="429.88" y="390" as="sourcePoint" />
            <mxPoint x="429.88" y="400" as="targetPoint" />
          </mxGeometry>
        </mxCell>
        <mxCell id="JyGssUp4hY9p978Yq240-42" value="" style="endArrow=classic;html=1;rounded=0;entryX=0.5;entryY=0;entryDx=0;entryDy=0;" edge="1" parent="1">
          <mxGeometry width="50" height="50" relative="1" as="geometry">
            <mxPoint x="869.86" y="390" as="sourcePoint" />
            <mxPoint x="869.86" y="400" as="targetPoint" />
          </mxGeometry>
        </mxCell>
        <mxCell id="JyGssUp4hY9p978Yq240-45" value="" style="endArrow=classic;html=1;rounded=0;entryX=0.5;entryY=0;entryDx=0;entryDy=0;" edge="1" parent="1">
          <mxGeometry width="50" height="50" relative="1" as="geometry">
            <mxPoint x="-80" y="440" as="sourcePoint" />
            <mxPoint x="-80" y="450" as="targetPoint" />
          </mxGeometry>
        </mxCell>
        <mxCell id="JyGssUp4hY9p978Yq240-46" value="" style="endArrow=none;html=1;rounded=0;" edge="1" parent="1">
          <mxGeometry width="50" height="50" relative="1" as="geometry">
            <mxPoint x="-80" y="440" as="sourcePoint" />
            <mxPoint x="50" y="440" as="targetPoint" />
          </mxGeometry>
        </mxCell>
        <mxCell id="JyGssUp4hY9p978Yq240-47" value="" style="endArrow=classic;html=1;rounded=0;entryX=0.527;entryY=-0.01;entryDx=0;entryDy=0;entryPerimeter=0;" edge="1" parent="1" target="JyGssUp4hY9p978Yq240-22">
          <mxGeometry width="50" height="50" relative="1" as="geometry">
            <mxPoint x="50" y="440" as="sourcePoint" />
            <mxPoint y="400" as="targetPoint" />
          </mxGeometry>
        </mxCell>
        <mxCell id="JyGssUp4hY9p978Yq240-49" style="edgeStyle=orthogonalEdgeStyle;rounded=0;orthogonalLoop=1;jettySize=auto;html=1;exitX=0.5;exitY=1;exitDx=0;exitDy=0;entryX=0.523;entryY=0.021;entryDx=0;entryDy=0;entryPerimeter=0;" edge="1" parent="1" source="JyGssUp4hY9p978Yq240-13" target="JyGssUp4hY9p978Yq240-24">
          <mxGeometry relative="1" as="geometry" />
        </mxCell>
        <mxCell id="JyGssUp4hY9p978Yq240-52" value="" style="endArrow=none;html=1;rounded=0;" edge="1" parent="1">
          <mxGeometry width="50" height="50" relative="1" as="geometry">
            <mxPoint x="-50" y="540" as="sourcePoint" />
            <mxPoint x="870" y="540" as="targetPoint" />
          </mxGeometry>
        </mxCell>
        <mxCell id="JyGssUp4hY9p978Yq240-61" value="" style="endArrow=classic;html=1;rounded=0;entryX=0.5;entryY=0;entryDx=0;entryDy=0;" edge="1" parent="1" target="JyGssUp4hY9p978Yq240-3">
          <mxGeometry width="50" height="50" relative="1" as="geometry">
            <mxPoint x="430" y="540" as="sourcePoint" />
            <mxPoint x="450" y="460" as="targetPoint" />
          </mxGeometry>
        </mxCell>
        <mxCell id="JyGssUp4hY9p978Yq240-63" value="" style="rounded=0;whiteSpace=wrap;html=1;fillColor=none;strokeColor=none;" vertex="1" parent="1">
          <mxGeometry x="-140" y="60" width="1140" height="570" as="geometry" />
        </mxCell>
      </root>
    </mxGraphModel>
  </diagram>
</mxfile>
